<svg width="24" height="24" viewBox="0 0 24 24" xmlns="http://www.w3.org/2000/svg"><title>shopping-cart</title><g fill-rule="nonzero" fill="#000"><path d="M8 24c-1.657 0-3-1.343-3-3s1.343-3 3-3 3 1.343 3 3-1.343 3-3 3zm0-2c.552 0 1-.448 1-1s-.448-1-1-1-1 .448-1 1 .448 1 1 1zM20 24c-1.657 0-3-1.343-3-3s1.343-3 3-3 3 1.343 3 3-1.343 3-3 3zm0-2c.552 0 1-.448 1-1s-.448-1-1-1-1 .448-1 1 .448 1 1 1zM6.537 5H23c.63 0 1.104.577.98 1.196l-1.68 8.39c-.282 1.424-1.546 2.442-2.98 2.414H8.758c-1.515.013-2.803-1.107-3-2.61L4.24 2.87C4.173 2.373 3.75 2 3.25 2H1c-.552 0-1-.448-1-1s.448-1 1-1h2.252c1.504.002 2.774 1.118 2.97 2.61L6.536 5zm1.205 9.13c.065.5.494.874 1.008.87h10.59c.483.01.905-.33 1-.806L21.78 7H6.8l.942 7.13z"/></g></svg>