<svg width="20" height="20" viewBox="0 0 20 20" xmlns="http://www.w3.org/2000/svg"><title>grid</title><g fill-rule="nonzero" fill="#000"><path d="M2 2v5h5V2H2zM1 0h7c.552 0 1 .448 1 1v7c0 .552-.448 1-1 1H1c-.552 0-1-.448-1-1V1c0-.552.448-1 1-1zM13 7h5V2h-5v5zm-1-7h7c.552 0 1 .448 1 1v7c0 .552-.448 1-1 1h-7c-.552 0-1-.448-1-1V1c0-.552.448-1 1-1zM13 18h5v-5h-5v5zm-1-7h7c.552 0 1 .448 1 1v7c0 .552-.448 1-1 1h-7c-.552 0-1-.448-1-1v-7c0-.552.448-1 1-1zM2 18h5v-5H2v5zm-1-7h7c.552 0 1 .448 1 1v7c0 .552-.448 1-1 1H1c-.552 0-1-.448-1-1v-7c0-.552.448-1 1-1z"/></g></svg>