<svg width="827" height="279" viewBox="0 0 827 279" xmlns="http://www.w3.org/2000/svg"><title>logo</title><g fill="none" fill-rule="evenodd"><path d="M196.392 72.454c0 11.653-2.16 21.473-6.484 29.46-4.323 7.99-10.15 14.426-17.48 19.312-7.33 4.887-15.787 8.458-25.372 10.714-9.586 2.255-19.547 3.383-29.884 3.383H93.21v75.273H45v-199.6h73.3c10.9 0 21.097 1.08 30.588 3.24 9.492 2.162 17.76 5.64 24.81 10.432 7.048 4.793 12.592 11.09 16.633 18.89 4.042 7.8 6.062 17.43 6.062 28.896zm-48.21.282c0-4.7-.938-8.552-2.818-11.56-1.88-3.006-4.417-5.355-7.612-7.047-3.195-1.693-6.813-2.82-10.854-3.384-4.04-.564-8.222-.846-12.545-.846H93.21v47.08h20.297c4.51 0 8.834-.375 12.968-1.126 4.135-.752 7.847-2.068 11.136-3.947 3.29-1.88 5.875-4.37 7.754-7.47 1.88-3.102 2.82-7.002 2.82-11.7zm153.65 35.24c-2.068-.564-4.09-.94-6.062-1.128-1.974-.187-3.9-.28-5.78-.28-6.202 0-11.418 1.126-15.646 3.382-4.23 2.255-7.612 4.98-10.15 8.175-2.537 3.195-4.37 6.672-5.497 10.43-1.128 3.76-1.692 7.05-1.692 9.87v72.17H210.77V70.2h44.544v20.297h.564c3.57-7.142 8.645-12.968 15.224-17.48 6.578-4.51 14.19-6.765 22.835-6.765 1.88 0 3.712.094 5.498.282 1.785.188 3.242.47 4.37.845l-1.974 40.596zm70.76-82.603c0 3.57-.703 6.907-2.113 10.008-1.41 3.102-3.29 5.78-5.64 8.036-2.35 2.255-5.168 4.04-8.457 5.357-3.29 1.315-6.72 1.973-10.29 1.973-7.518 0-13.814-2.49-18.89-7.47-5.074-4.982-7.61-10.95-7.61-17.903 0-3.383.657-6.625 1.973-9.726 1.315-3.1 3.195-5.78 5.638-8.035s5.263-4.088 8.458-5.498C338.857.704 342.334 0 346.092 0c3.572 0 7.002.658 10.29 1.973 3.29 1.316 6.11 3.102 8.46 5.357 2.348 2.255 4.227 4.934 5.637 8.035 1.41 3.1 2.113 6.437 2.113 10.008zm-49.617 185.223V70.2h46.235v140.396h-46.235zm175.074 0v-76.683c0-3.947-.33-7.706-.988-11.277-.658-3.57-1.738-6.72-3.242-9.444-1.504-2.726-3.618-4.887-6.343-6.484-2.726-1.598-6.156-2.397-10.29-2.397-4.135 0-7.753.8-10.854 2.398-3.102 1.597-5.686 3.805-7.753 6.625-2.068 2.82-3.618 6.06-4.652 9.726-1.034 3.664-1.55 7.47-1.55 11.417v76.12H405.86V70.198h44.826v19.45h.564c1.69-3.006 3.9-5.966 6.625-8.88 2.725-2.913 5.92-5.403 9.585-7.47 3.665-2.068 7.66-3.76 11.982-5.075 4.323-1.316 8.927-1.973 13.814-1.973 9.398 0 17.385 1.69 23.963 5.074 6.578 3.383 11.887 7.753 15.928 13.11 4.04 5.356 6.954 11.51 8.74 18.466 1.785 6.954 2.678 13.908 2.678 20.862v86.832H498.05zm131.656-105.72v53.564c0 6.578 1.27 11.512 3.806 14.8 2.538 3.29 7.095 4.935 13.674 4.935 2.255 0 4.65-.188 7.19-.564 2.536-.375 4.65-.94 6.342-1.69l.564 33.83c-3.195 1.128-7.236 2.114-12.123 2.96-4.888.846-9.774 1.27-14.66 1.27-9.398 0-17.292-1.176-23.682-3.525-6.39-2.35-11.512-5.733-15.365-10.15-3.853-4.416-6.625-9.68-8.317-15.787-1.69-6.108-2.537-12.92-2.537-20.44v-59.203h-22.555V70.2h22.272V33.266h45.39V70.2h32.984v34.675h-32.984zM763.62 231.74c-2.82 7.33-5.968 13.86-9.445 19.594-3.477 5.732-7.612 10.62-12.405 14.66-4.792 4.04-10.43 7.095-16.915 9.162-6.484 2.067-14.143 3.1-22.977 3.1-4.322 0-8.786-.28-13.39-.845-4.606-.563-8.6-1.314-11.983-2.254l5.075-38.905c2.255.752 4.746 1.363 7.47 1.833 2.726.47 5.217.705 7.472.705 7.142 0 12.31-1.645 15.506-4.934 3.195-3.29 5.92-7.94 8.175-13.955l4.51-11.56-58.64-138.14h51.31l31.295 90.214h.845l27.91-90.215h49.055l-62.87 161.54z" fill="#000"/><path fill="#0FF" d="M0 11h24v50H0z"/><path fill="#FF0" d="M0 61h24v50H0z"/><path fill="#F0F" d="M0 111h24v50H0z"/><path fill="#000" d="M0 161h24v50H0z"/></g></svg>